# xmcd
#
# Track frame offsets: 
#        150
#        25334
#        51316
#        76545
#        86173
#        106248
#        126810
#        144848
#        165830
#        190823
#        194291
#        204891
#        234652
#        250682
#        269410
#        288243
#        303085
#        320632
#
# Disc length: 4283 seconds
#
# Revision: 0
# Processed by: cddbd v1.5.2PL0 Copyright (c) Steve Scherf et al.
# Submitted via: ExactAudioCopy v0.99pb5
#
DISCID=e810b912
DTITLE=Fabrizio Poggi and Chicken Mambo - Spirit and Freedom
DYEAR=2010
DGENRE=Blues
TTITLE0=I'm on my way
TTITLE1=I shall be released
TTITLE2=Stayed on freedom
TTITLE3=Halleluja
TTITLE4=In my hour of darkness
TTITLE5=I heard the angels singin'
TTITLE6=They killed Him
TTITLE7=Jesus called me in Heaven
TTITLE8=Spiritual
TTITLE9=My peace
TTITLE10=Jesus Christ
TTITLE11=Mr. Bojangles
TTITLE12=We shall not be moved
TTITLE13=He was a friend of mine
TTITLE14=Heaven stood still
TTITLE15=Live forever
TTITLE16=Glory Glory
TTITLE17=Spirit and Freedom
EXTD=
EXTT0=
EXTT1=
EXTT2=
EXTT3=
EXTT4=
EXTT5=
EXTT6=
EXTT7=
EXTT8=
EXTT9=
EXTT10=
EXTT11=
EXTT12=
EXTT13=
EXTT14=
EXTT15=
EXTT16=
EXTT17=
PLAYORDER=
